<svg version="1.1" id="Layer_1" xmlns="http://www.w3.org/2000/svg" xmlns:xlink="http://www.w3.org/1999/xlink" x="0px" y="0px"
	 width="100%" viewBox="0 0 286 235" enable-background="new 0 0 286 235" xml:space="preserve">
<path fill="#050E29" opacity="1.000000" stroke="none" 
	d="
M1.000000,88.000000 
	C1.000000,58.666672 1.000000,29.833347 1.000000,1.000015 
	C96.333305,1.000010 191.666611,1.000010 286.999939,1.000005 
	C286.999939,79.333290 286.999939,157.666580 286.999969,235.999908 
	C191.666733,235.999939 96.333473,235.999939 1.000107,235.999969 
	C1.000000,186.833328 1.000000,137.666672 1.000000,88.000000 
M34.783489,106.859955 
	C34.783489,106.859955 34.675175,106.717094 34.058430,106.862869 
	C31.906979,108.343704 31.787325,109.745789 34.538857,110.328629 
	C37.351265,110.924347 40.257099,111.079010 43.742683,111.647057 
	C44.179047,111.675301 44.615406,111.703552 45.585224,112.114304 
	C46.435291,112.170753 47.285358,112.227211 48.753780,112.529617 
	C49.193787,112.570061 49.633797,112.610504 50.603333,113.029999 
	C51.447697,113.099960 52.292061,113.169930 53.748753,113.510849 
	C54.189892,113.564323 54.631031,113.617790 55.477825,114.020981 
	C56.336197,114.086784 57.194572,114.152580 58.465843,114.436356 
	C58.465843,114.436356 58.919861,114.545433 58.919861,114.545433 
	C58.919861,114.545433 59.386421,114.526749 59.726509,114.872231 
	C60.485458,114.924728 61.244404,114.977226 62.758827,115.191643 
	C64.993790,116.399658 68.870293,115.737892 67.984924,120.728195 
	C68.104500,123.118156 68.224075,125.508125 68.246803,128.576813 
	C68.426231,129.698318 68.605652,130.819809 68.546204,132.608978 
	C69.869751,137.933319 71.193298,143.257645 72.575226,149.306168 
	C78.545059,168.229401 89.642998,183.819321 104.581108,196.524612 
	C111.231903,202.181290 117.576408,207.622574 120.975723,215.951370 
	C122.506424,219.701813 125.522552,219.887314 128.683228,217.382172 
	C131.411942,215.219345 134.200455,213.131989 137.885193,211.226303 
	C143.294952,211.299881 148.704712,211.373459 154.864594,211.554855 
	C155.867035,211.472458 156.869461,211.390045 158.601257,211.507263 
	C160.040115,211.236816 161.478973,210.966385 163.725708,210.718414 
	C164.775253,210.496490 165.824783,210.274567 167.404053,210.216309 
	C167.904221,210.025513 168.404388,209.834732 169.657028,209.622375 
	C173.847061,208.310791 178.037094,206.999207 183.008179,205.654419 
	C190.134705,201.504303 197.261215,197.354172 205.006195,192.987488 
	C210.367081,187.668320 215.727966,182.349136 221.513412,176.535370 
	C225.873413,170.693863 230.233429,164.852356 235.151199,158.580093 
	C237.445618,154.785202 239.740036,150.990311 242.780807,145.960968 
	C246.443329,154.399979 249.398819,161.209915 252.354324,168.019836 
	C252.857132,167.899261 253.359955,167.778687 253.862778,167.658127 
	C254.318939,161.411575 254.775085,155.165024 255.511337,148.292618 
	C255.556625,147.161392 255.601898,146.030167 255.973969,144.415512 
	C255.988968,143.276810 256.003967,142.138092 256.294647,140.328506 
	C256.341522,139.135513 256.388397,137.942505 256.811981,136.191345 
	C256.882477,134.460861 256.952972,132.730377 257.306915,130.309265 
	C257.405670,128.833054 257.504395,127.356834 257.925629,125.404678 
	C257.932159,124.279305 257.938721,123.153923 258.213654,121.323151 
	C258.309998,119.830338 258.406311,118.337517 258.844452,116.391548 
	C258.858032,115.277145 258.871613,114.162735 259.132202,112.308258 
	C259.206207,110.767235 259.280182,109.226204 259.738159,107.199966 
	C259.790833,105.814949 259.843475,104.429939 260.154480,102.206261 
	C259.776794,100.439278 259.399078,98.672295 258.626007,96.717957 
	C258.065002,97.133942 257.504028,97.549927 256.275055,98.128830 
	C243.844513,105.740501 231.413956,113.352173 218.290604,121.041046 
	C212.488632,124.652786 206.686646,128.264526 200.316254,131.910553 
	C200.102570,132.294907 199.888885,132.679260 199.675201,133.063614 
	C200.197815,133.218231 200.720444,133.372849 202.146393,133.597290 
	C208.399353,133.614822 214.654877,133.542007 220.903351,133.718643 
	C222.318787,133.758636 223.709732,134.664948 224.658951,135.308716 
	C224.378174,135.496567 224.216003,135.758011 223.919693,136.760910 
	C218.890778,143.066620 213.861862,149.372345 208.202255,155.941956 
	C201.138672,161.630432 194.075089,167.318909 186.208221,172.903885 
	C182.129913,173.960861 178.051620,175.017838 173.613358,175.880936 
	C173.110825,176.025925 172.608292,176.170898 171.263916,176.187668 
	C170.131470,176.228256 168.999023,176.268860 167.204987,175.974976 
	C159.912338,174.955872 153.332703,172.558167 149.586746,165.662689 
	C147.953293,162.655838 146.973923,159.293671 145.722168,155.401489 
	C145.589142,154.963135 145.456100,154.524780 145.518936,153.261856 
	C145.355865,150.840027 145.192795,148.418182 145.219818,145.287018 
	C145.285172,144.071228 145.350510,142.855423 145.765472,141.310730 
	C145.798950,140.557968 145.832428,139.805222 146.126907,138.395966 
	C147.523849,136.409409 148.920792,134.422852 150.951462,132.252869 
	C153.238724,131.355179 156.143829,129.079651 157.713013,129.783310 
	C167.925232,134.362717 177.855072,139.573792 187.854736,144.622864 
	C189.120697,145.262054 190.255081,146.161835 192.320480,147.507950 
	C192.320480,144.052460 192.320480,141.521271 192.536194,138.178513 
	C192.312195,135.101669 192.088196,132.024811 192.080307,128.603851 
	C191.932205,128.113205 191.784103,127.622551 191.729935,126.322868 
	C191.169693,123.244225 191.047165,120.000420 189.960464,117.120422 
	C187.501175,110.602730 186.071381,104.436821 192.495850,98.480919 
	C194.978317,95.254715 197.460770,92.028519 200.398758,88.358910 
	C201.800491,86.208603 203.202209,84.058296 205.041534,81.451874 
	C205.395111,80.695541 205.748688,79.939201 206.642532,78.861679 
	C207.195190,77.530701 207.747849,76.199730 208.724243,74.381996 
	C208.939514,73.778595 209.154770,73.175186 209.909515,72.130379 
	C212.346680,64.377136 214.783844,56.623890 217.512268,48.259335 
	C217.548447,47.812458 217.584625,47.365582 218.026367,46.406826 
	C218.072845,45.560669 218.119339,44.714516 218.441086,43.163223 
	C218.488007,42.412231 218.534927,41.661243 218.979446,40.258305 
	C219.050552,38.462803 219.121643,36.667297 219.439926,33.993694 
	C219.405182,30.035454 219.370438,26.077211 219.459946,21.453455 
	C215.597275,20.561552 211.734619,19.669647 207.243439,18.512003 
	C206.792267,18.500805 206.341110,18.489607 205.199722,18.048676 
	C197.509766,18.190327 189.819794,18.331978 181.446594,18.395353 
	C181.005142,18.505972 180.563705,18.616589 179.289505,18.498505 
	C162.010956,20.493702 145.691391,25.340931 130.197037,34.889332 
	C125.494598,37.919994 120.792152,40.950657 115.581680,43.823666 
	C115.066772,43.910572 114.551865,43.997478 113.474167,43.813309 
	C113.062119,43.828083 112.650070,43.842857 111.685432,43.527443 
	C109.461563,42.694191 107.237686,41.860939 104.583534,40.753792 
	C104.249672,40.718571 103.915817,40.683350 103.013512,40.189896 
	C100.311913,39.658817 97.610321,39.127739 94.277046,38.346226 
	C93.826973,38.334282 93.376892,38.322338 92.251129,37.945564 
	C83.599617,37.834225 74.948097,37.722885 65.501411,37.455784 
	C62.324909,38.000004 59.148403,38.544220 55.422276,39.102638 
	C55.249653,39.393471 55.077030,39.684303 54.854950,40.691246 
	C62.822132,49.862621 70.469948,59.341175 78.880753,68.085861 
	C83.641693,73.035797 86.540947,77.279106 80.837738,83.892654 
	C79.525429,85.019798 78.388321,86.613770 76.867233,87.184624 
	C72.671623,88.759232 68.315414,89.905899 63.279781,91.186737 
	C60.185600,92.546906 57.091415,93.907082 53.281250,95.304794 
	C48.560246,98.010391 43.839241,100.715981 38.487911,103.491325 
	C37.228714,104.559654 35.969517,105.627975 34.783489,106.859955 
z"/>
<path fill="#0168D8" opacity="1.000000" stroke="none" 
	d="
M136.962540,211.011292 
	C134.200455,213.131989 131.411942,215.219345 128.683228,217.382172 
	C125.522552,219.887314 122.506424,219.701813 120.975723,215.951370 
	C117.576408,207.622574 111.231903,202.181290 104.581108,196.524612 
	C89.642998,183.819321 78.545059,168.229401 72.808731,148.683167 
	C73.931061,147.717636 74.819893,147.375107 75.853027,147.294708 
	C76.103127,148.140747 76.208931,148.724640 76.300537,149.625183 
	C76.669617,150.639511 77.052872,151.337189 77.650131,152.346832 
	C84.522186,168.807281 94.411530,182.655258 107.677704,194.009048 
	C108.909966,195.063675 111.128242,194.966217 112.888687,195.403687 
	C113.108757,195.009293 113.328827,194.614899 113.548897,194.220505 
	C117.329048,200.918396 121.109200,207.616287 124.785316,214.129852 
	C129.221008,211.565720 132.759705,209.520111 136.753128,207.576080 
	C138.131775,207.717331 139.055695,207.757034 139.935699,208.091125 
	C138.915359,209.260773 137.938950,210.136032 136.962540,211.011292 
z"/>
<path fill="#00EED1" opacity="1.000000" stroke="none" 
	d="
M180.122253,18.727207 
	C180.563705,18.616589 181.005142,18.505972 182.150482,18.607231 
	C190.532898,18.705542 198.211411,18.591974 205.889938,18.478409 
	C206.341110,18.489607 206.792267,18.500805 207.789917,18.894520 
	C212.002838,20.224348 215.669266,21.171661 219.335693,22.118973 
	C219.370438,26.077211 219.405182,30.035454 219.090790,34.650208 
	C218.688385,37.174561 218.635117,39.042408 218.581863,40.910252 
	C218.534927,41.661243 218.488007,42.412231 218.096558,43.660187 
	C217.708282,45.077667 217.664536,45.998184 217.620789,46.918705 
	C217.584625,47.365582 217.548447,47.812458 217.121490,48.783279 
	C214.277161,57.062077 211.823593,64.816925 209.370026,72.571777 
	C209.154770,73.175186 208.939514,73.778595 208.244019,74.782013 
	C207.209946,76.515640 206.656113,77.849251 206.102264,79.182861 
	C205.748688,79.939201 205.395111,80.695541 204.528656,81.799545 
	C202.658264,84.365585 201.300735,86.583946 199.943222,88.802322 
	C197.460770,92.028519 194.978317,95.254715 191.955963,98.754990 
	C190.949310,99.047638 190.482574,99.066216 189.942963,98.583954 
	C189.727310,97.425453 189.584503,96.767799 189.629913,95.846802 
	C193.265854,90.417473 196.713577,85.251480 200.502167,79.960648 
	C201.341492,77.716354 201.839935,75.596901 202.347351,73.070129 
	C202.345413,69.945145 202.334488,67.227470 202.461670,64.156990 
	C202.351990,62.865726 202.104187,61.927261 201.735413,60.660774 
	C200.029861,54.722992 195.604141,56.843838 191.810852,56.641190 
	C191.015793,56.739250 190.387238,56.987064 189.474152,57.363388 
	C188.784225,57.581100 188.378784,57.670296 187.717834,57.629463 
	C185.904312,58.148514 184.346329,58.797600 182.438889,59.620201 
	C180.447647,60.148514 178.805878,60.503307 177.164093,60.858101 
	C176.959961,60.342781 176.755829,59.827461 176.551712,59.312138 
	C179.908508,57.795845 183.265305,56.279549 186.995544,54.807289 
	C189.284531,54.108391 191.200089,53.365452 193.428497,52.491539 
	C194.189331,52.364445 194.637299,52.368324 195.390549,52.558136 
	C197.868362,53.123184 200.040878,53.502300 202.478134,53.998878 
	C203.288925,54.887707 203.834976,55.659073 204.325104,56.733871 
	C204.632660,57.730946 204.996124,58.424595 205.507278,59.420097 
	C205.688995,60.165394 205.723053,60.608837 205.594421,61.335117 
	C205.717255,63.442585 206.002747,65.267212 206.288223,67.091835 
	C206.751923,67.126656 207.215637,67.161484 207.679337,67.196304 
	C208.004959,65.946686 208.330582,64.697067 208.705551,63.082756 
	C209.459076,60.853706 210.163239,58.989353 211.111954,56.916370 
	C212.368942,52.233501 213.381393,47.759262 214.360291,42.997406 
	C214.478577,42.156727 214.630417,41.603664 215.035095,40.720016 
	C215.332489,39.027840 215.377060,37.666256 215.375046,36.020531 
	C215.453049,35.179977 215.577637,34.623569 215.956070,33.743557 
	C216.436188,30.803543 217.071976,28.127028 216.700867,25.598282 
	C216.536804,24.480333 214.332245,23.661840 212.718735,22.727383 
	C211.961731,22.608854 211.540009,22.470345 210.958099,22.093327 
	C209.550766,21.801428 208.303604,21.748035 206.682892,21.729868 
	C205.578308,21.616730 204.847260,21.468367 203.859711,21.058254 
	C196.694336,20.956547 189.785477,21.116590 182.500061,21.414440 
	C181.061478,21.605429 179.999435,21.658609 178.700043,21.535213 
	C177.268478,21.687843 176.074280,22.017048 174.575821,22.489796 
	C173.826981,22.659487 173.382401,22.685638 172.731750,22.552355 
	C171.642044,22.692215 170.758392,22.991510 169.583435,23.447453 
	C168.857117,23.651697 168.422089,23.699293 167.836212,23.550720 
	C168.326721,22.638609 168.847733,21.503891 169.630249,21.278944 
	C173.086487,20.285404 176.617996,19.553715 180.122253,18.727207 
z"/>
<path fill="#0086E3" opacity="1.000000" stroke="none" 
	d="
M68.342026,120.093330 
	C68.870293,115.737892 64.993790,116.399658 62.093075,114.915588 
	C60.747021,114.601936 60.066723,114.564346 59.386421,114.526749 
	C59.386421,114.526749 58.919861,114.545433 58.919861,114.545433 
	C58.919861,114.545433 58.465843,114.436356 58.073414,114.114044 
	C56.811378,113.751579 55.941776,113.711418 55.072170,113.671257 
	C54.631031,113.617790 54.189892,113.564323 53.295719,113.171761 
	C51.919724,112.772095 50.996765,112.711517 50.073803,112.650948 
	C49.633797,112.610504 49.193787,112.570061 48.296864,112.198860 
	C46.910553,111.822662 45.981163,111.777229 45.051769,111.731796 
	C44.615406,111.703552 44.179047,111.675301 43.214523,111.281357 
	C40.015968,109.516144 37.345570,108.116615 34.675175,106.717094 
	C34.675175,106.717094 34.783489,106.859955 35.080589,106.779251 
	C36.624538,105.606232 37.871387,104.513901 39.118237,103.421577 
	C43.839241,100.715981 48.560246,98.010391 53.523727,95.568359 
	C54.126587,97.047638 54.486973,98.263359 54.576149,99.722549 
	C50.877773,101.648071 47.450607,103.330139 43.700394,105.042343 
	C42.819672,105.879341 42.262001,106.686195 41.704330,107.493050 
	C43.118958,107.755936 44.533588,108.018822 46.319366,108.279083 
	C47.409893,108.444717 48.129265,108.612976 49.079666,109.016792 
	C51.894756,109.821465 54.478809,110.390572 57.338150,110.918167 
	C68.031303,113.434258 78.449173,115.991867 89.017334,118.788101 
	C90.017380,119.388458 90.867149,119.750206 91.816345,120.444870 
	C91.671722,121.896187 91.427666,123.014603 90.992096,124.158051 
	C90.718704,124.281586 90.636833,124.380074 90.554962,124.478561 
	C90.745689,124.624939 90.936409,124.771317 91.179443,125.265503 
	C91.159210,126.076225 91.086670,126.539131 90.842606,127.154495 
	C90.715851,127.865700 90.760612,128.424438 90.793449,129.335220 
	C90.678398,130.383362 90.575279,131.079468 90.153412,131.963272 
	C89.252419,135.076523 88.670158,138.002060 88.051071,140.583008 
	C87.677750,139.159515 87.341255,138.080658 86.920250,136.542053 
	C86.752663,132.759369 86.382065,129.411484 86.667305,126.120453 
	C86.953117,122.822830 85.682869,121.489021 82.636368,120.499199 
	C70.120712,116.432831 72.107033,117.347786 71.611290,128.327332 
	C71.766350,130.102798 72.086037,131.606613 72.526138,133.462326 
	C72.711372,134.552612 72.776192,135.291031 72.689224,136.246826 
	C72.858604,137.345016 73.179756,138.225815 73.623947,139.407013 
	C73.795738,140.135529 73.844482,140.563660 73.693817,141.157074 
	C72.702957,140.796738 71.479546,140.438980 71.198227,139.715088 
	C70.217781,137.192261 69.563408,134.542694 68.785080,131.941315 
	C68.605652,130.819809 68.426231,129.698318 68.457169,127.912407 
	C68.559029,124.863113 68.450523,122.478218 68.342026,120.093330 
z"/>
<path fill="#01A8D5" opacity="1.000000" stroke="none" 
	d="
M55.971901,39.088436 
	C59.148403,38.544220 62.324909,38.000004 66.338715,37.627075 
	C69.108406,38.692810 71.040794,39.587254 72.533875,40.541153 
	C68.781609,41.002892 65.468651,41.405174 60.856804,41.965176 
	C70.294640,52.587658 78.719940,62.070507 86.827133,71.195328 
	C91.110550,67.142067 95.010262,63.451893 99.023178,60.096375 
	C99.540207,61.003376 99.944038,61.575722 100.220932,62.468330 
	C94.867683,70.195885 89.641388,77.603172 84.221420,84.975098 
	C83.768524,84.969055 83.511917,85.013542 82.912643,84.776123 
	C82.101852,84.085274 81.636345,83.691475 81.170837,83.297684 
	C86.540947,77.279106 83.641693,73.035797 78.880753,68.085861 
	C70.469948,59.341175 62.822132,49.862621 55.092438,40.230988 
	C55.596622,39.592888 55.810612,39.365456 55.971901,39.088436 
z"/>
<path fill="#01DCC5" opacity="1.000000" stroke="none" 
	d="
M255.647186,144.898941 
	C255.601898,146.030167 255.556625,147.161392 255.168503,148.772675 
	C254.438980,149.704803 254.052307,150.156860 253.481903,150.823700 
	C253.022873,148.985886 252.654175,147.509750 252.225281,145.638519 
	C252.461823,142.821091 252.758575,140.398773 253.212677,137.822784 
	C253.326172,137.135284 253.282303,136.601456 253.179016,135.667328 
	C253.419571,132.839783 253.719513,130.412567 254.202789,127.788200 
	C254.365921,126.758133 254.345718,125.925209 254.266129,124.685959 
	C254.509079,121.839096 254.811432,119.398560 255.268158,116.808258 
	C255.385849,116.134315 255.349197,115.610138 255.252533,114.693611 
	C255.461365,112.197510 255.730164,110.093758 256.194305,107.739136 
	C256.034760,106.083206 255.679855,104.678162 255.006104,103.488312 
	C253.110764,104.621193 251.543976,105.555992 249.956268,106.453758 
	C240.095367,112.029579 230.229782,117.597092 220.135620,122.931885 
	C219.598114,122.118881 219.290756,121.541367 218.983398,120.963852 
	C231.413956,113.352173 243.844513,105.740501 256.908569,98.009842 
	C258.035187,97.562332 258.528290,97.233818 259.021393,96.905312 
	C259.399078,98.672295 259.776794,100.439278 259.822815,102.966293 
	C259.445496,105.045952 259.399841,106.365562 259.354187,107.685181 
	C259.280182,109.226204 259.206207,110.767235 258.828491,112.907501 
	C258.517395,114.619400 258.510010,115.732048 258.502625,116.844704 
	C258.406311,118.337517 258.309998,119.830338 257.892456,121.907051 
	C257.581909,123.620842 257.592499,124.750725 257.603088,125.880615 
	C257.504395,127.356834 257.405670,128.833054 256.941772,131.004700 
	C256.529510,133.383270 256.482361,135.066391 256.435242,136.749512 
	C256.388397,137.942505 256.341522,139.135513 255.957672,140.893631 
	C255.629517,142.605484 255.638351,143.752213 255.647186,144.898941 
z"/>
<path fill="#01AAC5" opacity="1.000000" stroke="none" 
	d="
M192.320480,138.990082 
	C192.320480,141.521271 192.320480,144.052460 192.320480,147.507950 
	C190.255081,146.161835 189.120697,145.262054 187.854736,144.622864 
	C177.855072,139.573792 167.925232,134.362717 157.713013,129.783310 
	C156.143829,129.079651 153.238724,131.355179 150.315979,132.075348 
	C148.647644,131.518372 147.614777,131.138947 146.753326,130.466263 
	C153.620651,125.458359 160.316544,120.743706 167.005737,116.503616 
	C167.070190,118.246849 167.141342,119.515533 167.056885,121.055519 
	C165.108475,122.694771 163.315674,124.062706 161.566162,125.397621 
	C170.126526,129.917084 178.362976,134.286148 186.631958,138.592758 
	C187.308670,138.945206 188.207092,138.871964 189.132690,139.218613 
	C189.262863,140.901901 189.262863,142.363098 189.262863,143.824295 
	C189.624222,143.792633 189.985565,143.760986 190.346924,143.729324 
	C191.004776,142.149582 191.662628,140.569824 192.320480,138.990082 
z"/>
<path fill="#01C2B9" opacity="1.000000" stroke="none" 
	d="
M252.285492,146.033600 
	C252.654175,147.509750 253.022873,148.985886 253.481903,150.823700 
	C254.052307,150.156860 254.438980,149.704803 255.028442,149.085602 
	C254.775085,155.165024 254.318939,161.411575 253.862778,167.658127 
	C253.359955,167.778687 252.857132,167.899261 252.354324,168.019836 
	C249.398819,161.209915 246.443329,154.399979 242.780807,145.960968 
	C239.740036,150.990311 237.445618,154.785202 234.542206,158.715485 
	C233.223541,158.039703 232.513870,157.228531 231.999084,156.153702 
	C235.727432,149.841202 239.260864,143.792358 243.406052,136.696289 
	C246.026901,142.483856 247.983505,146.804581 249.940094,151.125305 
	C250.293472,150.994553 250.646851,150.863800 251.000229,150.733063 
	C251.428650,149.166580 251.857071,147.600082 252.285492,146.033600 
z"/>
<path fill="#00DAD9" opacity="1.000000" stroke="none" 
	d="
M218.636993,121.002449 
	C219.290756,121.541367 219.598114,122.118881 219.955658,123.247986 
	C217.974899,125.132950 215.943970,126.466331 213.614120,127.855598 
	C213.637955,128.868179 213.826385,130.564316 214.307068,130.651642 
	C216.231445,131.001236 218.268448,130.677765 220.223251,130.924515 
	C223.719284,131.365845 227.185989,132.039474 230.545715,132.938446 
	C223.907181,141.489716 217.387894,149.718536 210.625641,157.757599 
	C209.866119,156.937897 209.349533,156.307968 208.832947,155.678070 
	C213.861862,149.372345 218.890778,143.066620 224.283264,136.366776 
	C224.985931,135.812897 225.140976,135.546188 225.111954,135.172501 
	C223.709732,134.664948 222.318787,133.758636 220.903351,133.718643 
	C214.654877,133.542007 208.399353,133.614822 201.712067,133.275269 
	C201.146729,132.594254 201.015701,132.235260 200.884674,131.876266 
	C206.686646,128.264526 212.488632,124.652786 218.636993,121.002449 
z"/>
<path fill="#00C3CB" opacity="1.000000" stroke="none" 
	d="
M100.347878,62.148064 
	C99.944038,61.575722 99.540207,61.003376 99.169434,59.804199 
	C102.912819,55.147778 106.623138,51.118195 110.653191,46.741364 
	C106.240456,45.344646 101.666931,43.897030 96.957809,42.227962 
	C95.897507,41.930256 94.972801,41.854008 93.667511,41.805138 
	C92.534477,41.716110 91.782028,41.599709 90.916428,41.263477 
	C90.152138,40.660870 89.500992,40.278091 88.382256,39.620438 
	C90.574013,38.988628 91.750420,38.649513 92.926819,38.310394 
	C93.376892,38.322338 93.826973,38.334282 94.816795,38.729301 
	C98.098351,39.624298 100.840149,40.136215 103.581955,40.648132 
	C103.915817,40.683350 104.249672,40.718571 105.035820,41.148705 
	C107.738075,42.314953 109.988052,43.086292 112.238022,43.857632 
	C112.650070,43.842857 113.062119,43.828083 113.889389,44.113274 
	C114.899643,44.269264 115.494675,44.125294 116.089714,43.981319 
	C120.792152,40.950657 125.494598,37.919994 130.617584,35.259277 
	C131.092072,36.208637 131.146011,36.788052 131.035583,37.648300 
	C120.696770,46.002113 110.522324,54.075089 100.347878,62.148064 
z"/>
<path fill="#01C3B0" opacity="1.000000" stroke="none" 
	d="
M131.199951,37.367462 
	C131.146011,36.788052 131.092072,36.208637 130.974518,35.197350 
	C145.691391,25.340931 162.010956,20.493702 179.705872,18.612858 
	C176.617996,19.553715 173.086487,20.285404 169.630249,21.278944 
	C168.847733,21.503891 168.326721,22.638609 167.536850,23.770134 
	C155.325546,28.579630 143.262756,32.973545 131.199951,37.367462 
M160.507538,23.934578 
	C160.130753,24.061798 159.753967,24.189018 159.377197,24.316238 
	C159.439606,24.468512 159.502014,24.620785 159.564423,24.773060 
	C160.060776,24.534338 160.557129,24.295614 161.503784,24.041052 
	C161.877747,23.907320 162.251694,23.773590 162.625656,23.639860 
	C162.555084,23.486517 162.484512,23.333174 162.413940,23.179831 
	C161.930649,23.434507 161.447342,23.689182 160.507538,23.934578 
z"/>
<path fill="#00A6E2" opacity="1.000000" stroke="none" 
	d="
M146.581924,130.759506 
	C147.614777,131.138947 148.647644,131.518372 149.999115,132.167053 
	C148.920792,134.422852 147.523849,136.409409 145.816284,139.013382 
	C145.475723,140.300415 145.445786,140.970016 145.415848,141.639633 
	C145.350510,142.855423 145.285172,144.071228 144.921539,145.955536 
	C144.856522,149.111511 145.089798,151.598969 145.323059,154.086411 
	C145.456100,154.524780 145.589142,154.963135 145.553558,156.056122 
	C145.301880,158.108337 145.218826,159.505905 145.071167,160.955597 
	C145.006561,161.007706 144.880783,161.116058 144.677780,160.967850 
	C144.065826,160.530197 143.656876,160.240753 143.072021,159.580963 
	C142.300110,153.241776 141.704132,147.272964 141.058212,140.804169 
	C135.594894,144.164291 133.414154,149.385956 131.344849,154.977463 
	C130.165756,155.211792 129.222733,155.321014 128.303253,155.045105 
	C130.459564,143.674423 138.439438,137.154861 146.581924,130.759506 
z"/>
<path fill="#01C3CD" opacity="1.000000" stroke="none" 
	d="
M192.428345,138.584290 
	C191.662628,140.569824 191.004776,142.149582 190.346924,143.729324 
	C189.985565,143.760986 189.624222,143.792633 189.262863,143.824295 
	C189.262863,142.363098 189.262863,140.901901 189.097916,138.765839 
	C187.549347,128.916931 186.165741,119.742889 184.847061,110.162865 
	C186.613281,106.199524 188.314545,102.642159 190.015808,99.084793 
	C190.482574,99.066216 190.949310,99.047638 191.766418,99.030426 
	C186.071381,104.436821 187.501175,110.602730 189.960464,117.120422 
	C191.047165,120.000420 191.169693,123.244225 191.573242,126.902359 
	C191.565765,127.970551 191.714981,128.459259 191.864197,128.947968 
	C192.088196,132.024811 192.312195,135.101669 192.428345,138.584290 
z"/>
<path fill="#018AC8" opacity="1.000000" stroke="none" 
	d="
M145.135757,160.903473 
	C145.218826,159.505905 145.301880,158.108337 145.541229,156.401825 
	C146.973923,159.293671 147.953293,162.655838 149.586746,165.662689 
	C153.332703,172.558167 159.912338,174.955872 167.337921,176.286652 
	C166.986725,177.560287 166.502625,178.522247 165.633514,179.544815 
	C153.449738,177.777863 145.769043,170.916351 143.247925,159.951309 
	C143.656876,160.240753 144.065826,160.530197 144.726379,161.114929 
	C145.167969,161.498016 145.357986,161.585815 145.547989,161.673630 
	C145.410583,161.416916 145.273163,161.160187 145.135757,160.903473 
z"/>
<path fill="#008CE0" opacity="1.000000" stroke="none" 
	d="
M182.227142,205.687637 
	C178.037094,206.999207 173.847061,208.310791 169.120865,209.513000 
	C168.014572,209.619949 167.444458,209.836288 166.874329,210.052628 
	C165.824783,210.274567 164.775253,210.496490 163.052185,210.550720 
	C160.876404,210.691238 159.374146,210.999451 157.871902,211.307648 
	C156.869461,211.390045 155.867035,211.472458 154.234756,211.254593 
	C151.140167,208.851822 146.376816,212.359650 145.504517,207.420868 
	C150.637085,207.290390 155.325806,207.192749 160.175354,207.230133 
	C160.943359,207.184952 161.550522,207.004745 162.569366,206.698380 
	C169.317307,204.969223 175.653549,203.366241 182.006073,202.254181 
	C182.090622,203.725967 182.158875,204.706802 182.227142,205.687637 
z"/>
<path fill="#019CD5" opacity="1.000000" stroke="none" 
	d="
M182.617661,205.671021 
	C182.158875,204.706802 182.090622,203.725967 182.247284,202.025787 
	C189.318237,197.221359 196.164276,193.136292 202.954315,189.374939 
	C203.394791,190.867126 203.891266,192.035583 204.387741,193.204056 
	C197.261215,197.354172 190.134705,201.504303 182.617661,205.671021 
z"/>
<path fill="#00BFCE" opacity="1.000000" stroke="none" 
	d="
M231.804199,156.417374 
	C232.513870,157.228531 233.223541,158.039703 234.263336,158.930847 
	C230.233429,164.852356 225.873413,170.693863 220.988525,176.707001 
	C219.640259,176.240845 218.816879,175.603043 218.101501,174.645462 
	C222.741058,168.356247 227.272629,162.386810 231.804199,156.417374 
z"/>
<path fill="#019EB6" opacity="1.000000" stroke="none" 
	d="
M92.588974,38.127983 
	C91.750420,38.649513 90.574013,38.988628 88.382256,39.620438 
	C89.500992,40.278091 90.152138,40.660870 90.492874,41.329155 
	C84.446037,41.237003 78.709610,40.859352 72.973175,40.481697 
	C71.040794,39.587254 69.108406,38.692810 66.736305,37.704956 
	C74.948097,37.722885 83.599617,37.834225 92.588974,38.127983 
z"/>
<path fill="#009FE7" opacity="1.000000" stroke="none" 
	d="
M81.004288,83.595169 
	C81.636345,83.691475 82.101852,84.085274 82.979187,85.036499 
	C83.935020,86.017693 84.479027,86.441460 85.035034,87.332703 
	C85.101158,88.730896 85.155281,89.661613 84.866440,90.753387 
	C79.678558,91.924675 74.833649,92.934929 69.730209,93.801987 
	C67.737305,92.663261 63.823700,96.540382 64.022720,91.221817 
	C68.315414,89.905899 72.671623,88.759232 76.867233,87.184624 
	C78.388321,86.613770 79.525429,85.019798 81.004288,83.595169 
z"/>
<path fill="#00B6DA" opacity="1.000000" stroke="none" 
	d="
M217.993500,174.965240 
	C218.816879,175.603043 219.640259,176.240845 220.776245,176.954300 
	C215.727966,182.349136 210.367081,187.668320 204.696960,193.095764 
	C203.891266,192.035583 203.394791,190.867126 203.148453,189.095703 
	C208.263550,183.983582 213.128525,179.474411 217.993500,174.965240 
z"/>
<path fill="#01B3D2" opacity="1.000000" stroke="none" 
	d="
M208.517609,155.809998 
	C209.349533,156.307968 209.866119,156.937897 210.519638,158.072784 
	C203.527481,163.760498 196.398407,168.943237 188.961121,174.042404 
	C188.105789,173.641678 187.558655,173.324539 187.011505,173.007385 
	C194.075089,167.318909 201.138672,161.630432 208.517609,155.809998 
z"/>
<path fill="#019ED5" opacity="1.000000" stroke="none" 
	d="
M186.609863,172.955627 
	C187.558655,173.324539 188.105789,173.641678 188.820877,174.364899 
	C181.885651,179.040100 174.257431,180.750320 166.018509,179.484192 
	C166.502625,178.522247 166.986725,177.560287 167.668701,176.453888 
	C168.999023,176.268860 170.131470,176.228256 171.866272,176.361237 
	C172.970184,176.381470 173.471741,176.228149 173.973312,176.074814 
	C178.051620,175.017838 182.129913,173.960861 186.609863,172.955627 
z"/>
<path fill="#008CE0" opacity="1.000000" stroke="none" 
	d="
M63.651253,91.204277 
	C63.823700,96.540382 67.737305,92.663261 69.457108,94.031036 
	C64.577461,96.095230 59.712410,97.787155 54.847359,99.479080 
	C54.486973,98.263359 54.126587,97.047638 53.881718,95.549583 
	C57.091415,93.907082 60.185600,92.546906 63.651253,91.204277 
z"/>
<path fill="#016ABB" opacity="1.000000" stroke="none" 
	d="
M145.060669,207.453674 
	C146.376816,212.359650 151.140167,208.851822 153.859695,211.200684 
	C148.704712,211.373459 143.294952,211.299881 137.423859,211.118805 
	C137.938950,210.136032 138.915359,209.260773 139.941162,207.903381 
	C139.990570,207.421280 139.995346,207.042480 140.361771,206.983490 
	C142.172348,207.100906 143.616516,207.277298 145.060669,207.453674 
z"/>
<path fill="#01C3B0" opacity="1.000000" stroke="none" 
	d="
M205.544830,18.263542 
	C198.211411,18.591974 190.532898,18.705542 182.492096,18.646370 
	C189.819794,18.331978 197.509766,18.190327 205.544830,18.263542 
z"/>
<path fill="#0167C3" opacity="1.000000" stroke="none" 
	d="
M68.665642,132.275146 
	C69.563408,134.542694 70.217781,137.192261 71.198227,139.715088 
	C71.479546,140.438980 72.702957,140.796738 73.908478,141.434937 
	C74.784607,143.375870 75.246666,145.204224 75.708725,147.032578 
	C74.819893,147.375107 73.931061,147.717636 72.779541,148.321075 
	C71.193298,143.257645 69.869751,137.933319 68.665642,132.275146 
z"/>
<path fill="#01C3B0" opacity="1.000000" stroke="none" 
	d="
M209.639771,72.351074 
	C211.823593,64.816925 214.277161,57.062077 216.975861,49.088936 
	C214.783844,56.623890 212.346680,64.377136 209.639771,72.351074 
z"/>
<path fill="#0165BD" opacity="1.000000" stroke="none" 
	d="
M34.366802,106.789978 
	C37.345570,108.116615 40.015968,109.516144 42.904198,111.171204 
	C40.257099,111.079010 37.351265,110.924347 34.538857,110.328629 
	C31.787325,109.745789 31.906979,108.343704 34.366802,106.789978 
z"/>
<path fill="#01C3B0" opacity="1.000000" stroke="none" 
	d="
M219.397827,21.786213 
	C215.669266,21.171661 212.002838,20.224348 208.104187,19.027390 
	C211.734619,19.669647 215.597275,20.561552 219.397827,21.786213 
z"/>
<path fill="#018AC8" opacity="1.000000" stroke="none" 
	d="
M145.421005,153.674133 
	C145.089798,151.598969 144.856522,149.111511 144.826477,146.310211 
	C145.192795,148.418182 145.355865,150.840027 145.421005,153.674133 
z"/>
<path fill="#0167C3" opacity="1.000000" stroke="none" 
	d="
M68.163467,120.410767 
	C68.450523,122.478218 68.559029,124.863113 68.505585,127.573044 
	C68.224075,125.508125 68.104500,123.118156 68.163467,120.410767 
z"/>
<path fill="#019EB6" opacity="1.000000" stroke="none" 
	d="
M103.297729,40.419014 
	C100.840149,40.136215 98.098351,39.624298 95.132629,38.854519 
	C97.610321,39.127739 100.311913,39.658817 103.297729,40.419014 
z"/>
<path fill="#01C3B0" opacity="1.000000" stroke="none" 
	d="
M200.170990,88.580612 
	C201.300735,86.583946 202.658264,84.365585 204.309845,82.027603 
	C203.202209,84.058296 201.800491,86.208603 200.170990,88.580612 
z"/>
<path fill="#019EB6" opacity="1.000000" stroke="none" 
	d="
M111.961731,43.692535 
	C109.988052,43.086292 107.738075,42.314953 105.250961,41.285652 
	C107.237686,41.860939 109.461563,42.694191 111.961731,43.692535 
z"/>
<path fill="#01C3B0" opacity="1.000000" stroke="none" 
	d="
M218.780655,40.584278 
	C218.635117,39.042408 218.688385,37.174561 218.967194,35.089256 
	C219.121643,36.667297 219.050552,38.462803 218.780655,40.584278 
z"/>
<path fill="#01C2B9" opacity="1.000000" stroke="none" 
	d="
M256.623596,136.470428 
	C256.482361,135.066391 256.529510,133.383270 256.800049,131.350021 
	C256.952972,132.730377 256.882477,134.460861 256.623596,136.470428 
z"/>
<path fill="#016ABB" opacity="1.000000" stroke="none" 
	d="
M158.236572,211.407455 
	C159.374146,210.999451 160.876404,210.691238 162.648239,210.539490 
	C161.478973,210.966385 160.040115,211.236816 158.236572,211.407455 
z"/>
<path fill="#0165BD" opacity="1.000000" stroke="none" 
	d="
M38.803074,103.456451 
	C37.871387,104.513901 36.624538,105.606232 35.044006,106.697426 
	C35.969517,105.627975 37.228714,104.559654 38.803074,103.456451 
z"/>
<path fill="#01C2B9" opacity="1.000000" stroke="none" 
	d="
M258.673523,116.618126 
	C258.510010,115.732048 258.517395,114.619400 258.704987,113.277542 
	C258.871613,114.162735 258.858032,115.277145 258.673523,116.618126 
z"/>
<path fill="#01C2B9" opacity="1.000000" stroke="none" 
	d="
M259.546173,107.442574 
	C259.399841,106.365562 259.445496,105.045952 259.693634,103.385628 
	C259.843475,104.429939 259.790833,105.814949 259.546173,107.442574 
z"/>
<path fill="#01C2B9" opacity="1.000000" stroke="none" 
	d="
M255.810577,144.657227 
	C255.638351,143.752213 255.629517,142.605484 255.819824,141.229065 
	C256.003967,142.138092 255.988968,143.276810 255.810577,144.657227 
z"/>
<path fill="#01C2B9" opacity="1.000000" stroke="none" 
	d="
M257.764343,125.642647 
	C257.592499,124.750725 257.581909,123.620842 257.758270,122.259750 
	C257.938721,123.153923 257.932159,124.279305 257.764343,125.642647 
z"/>
<path fill="#01C3B0" opacity="1.000000" stroke="none" 
	d="
M206.372406,79.022278 
	C206.656113,77.849251 207.209946,76.515640 208.032135,75.025391 
	C207.747849,76.199730 207.195190,77.530701 206.372406,79.022278 
z"/>
<path fill="#0165BD" opacity="1.000000" stroke="none" 
	d="
M50.338570,112.840469 
	C50.996765,112.711517 51.919724,112.772095 52.989555,113.036285 
	C52.292061,113.169930 51.447697,113.099960 50.338570,112.840469 
z"/>
<path fill="#01C3B0" opacity="1.000000" stroke="none" 
	d="
M217.823578,46.662766 
	C217.664536,45.998184 217.708282,45.077667 217.958923,44.012753 
	C218.119339,44.714516 218.072845,45.560669 217.823578,46.662766 
z"/>
<path fill="#0165BD" opacity="1.000000" stroke="none" 
	d="
M45.318497,111.923050 
	C45.981163,111.777229 46.910553,111.822662 47.987686,112.075882 
	C47.285358,112.227211 46.435291,112.170753 45.318497,111.923050 
z"/>
<path fill="#0165BD" opacity="1.000000" stroke="none" 
	d="
M55.274998,113.846115 
	C55.941776,113.711418 56.811378,113.751579 57.866966,114.005051 
	C57.194572,114.152580 56.336197,114.086784 55.274998,113.846115 
z"/>
<path fill="#0165BD" opacity="1.000000" stroke="none" 
	d="
M59.556465,114.699493 
	C60.066723,114.564346 60.747021,114.601936 61.715340,114.834625 
	C61.244404,114.977226 60.485458,114.924728 59.556465,114.699493 
z"/>
<path fill="#016ABB" opacity="1.000000" stroke="none" 
	d="
M167.139191,210.134460 
	C167.444458,209.836288 168.014572,209.619949 168.744629,209.523773 
	C168.404388,209.834732 167.904221,210.025513 167.139191,210.134460 
z"/>
<path fill="#018AC8" opacity="1.000000" stroke="none" 
	d="
M173.793335,175.977875 
	C173.471741,176.228149 172.970184,176.381470 172.287186,176.425354 
	C172.608292,176.170898 173.110825,176.025925 173.793335,175.977875 
z"/>
<path fill="#019EB6" opacity="1.000000" stroke="none" 
	d="
M115.835693,43.902493 
	C115.494675,44.125294 114.899643,44.269264 114.170776,44.248810 
	C114.551865,43.997478 115.066772,43.910572 115.835693,43.902493 
z"/>
<path fill="#01C2B9" opacity="1.000000" stroke="none" 
	d="
M258.823700,96.811630 
	C258.528290,97.233818 258.035187,97.562332 257.242554,97.928375 
	C257.504028,97.549927 258.065002,97.133942 258.823700,96.811630 
z"/>
<path fill="#018AC8" opacity="1.000000" stroke="none" 
	d="
M145.590668,141.475189 
	C145.445786,140.970016 145.475723,140.300415 145.685791,139.341629 
	C145.832428,139.805222 145.798950,140.557968 145.590668,141.475189 
z"/>
<path fill="#028891" opacity="1.000000" stroke="none" 
	d="
M200.600464,131.893402 
	C201.015701,132.235260 201.146729,132.594254 201.260406,133.240356 
	C200.720444,133.372849 200.197815,133.218231 199.675201,133.063614 
	C199.888885,132.679260 200.102570,132.294907 200.600464,131.893402 
z"/>
<path fill="#01AAC5" opacity="1.000000" stroke="none" 
	d="
M191.972260,128.775909 
	C191.714981,128.459259 191.565765,127.970551 191.526276,127.306870 
	C191.784103,127.622551 191.932205,128.113205 191.972260,128.775909 
z"/>
<path fill="#019EB6" opacity="1.000000" stroke="none" 
	d="
M55.697090,39.095535 
	C55.810612,39.365456 55.596622,39.592888 55.117165,39.872932 
	C55.077030,39.684303 55.249653,39.393471 55.697090,39.095535 
z"/>
<path fill="#028891" opacity="1.000000" stroke="none" 
	d="
M224.885452,135.240601 
	C225.140976,135.546188 224.985931,135.812897 224.409637,136.032837 
	C224.216003,135.758011 224.378174,135.496567 224.885452,135.240601 
z"/>
<path fill="#05112C" opacity="1.000000" stroke="none" 
	d="
M75.853027,147.294708 
	C75.246666,145.204224 74.784607,143.375870 74.107880,141.269653 
	C73.844482,140.563660 73.795738,140.135529 73.689529,139.086426 
	C73.368378,137.653458 73.104691,136.841446 72.841003,136.029434 
	C72.776192,135.291031 72.711372,134.552612 72.623177,133.097137 
	C72.325165,130.938599 72.050537,129.497147 71.775909,128.055695 
	C72.107033,117.347786 70.120712,116.432831 82.636368,120.499199 
	C85.682869,121.489021 86.953117,122.822830 86.667305,126.120453 
	C86.382065,129.411484 86.752663,132.759369 86.807892,136.805664 
	C86.877106,138.678680 86.974167,139.828354 87.037697,141.397186 
	C87.736992,145.942917 88.469818,150.069489 89.202644,154.196045 
	C89.625809,154.085922 90.048981,153.975800 90.472153,153.865662 
	C90.472153,146.502304 90.472153,139.138931 90.472153,131.775574 
	C90.575279,131.079468 90.678398,130.383362 90.965050,129.185471 
	C91.103760,128.123138 91.058945,127.562584 91.014130,127.002037 
	C91.086670,126.539131 91.159210,126.076225 91.254532,125.073776 
	C91.277306,124.534233 91.183617,124.133011 91.183617,124.133011 
	C91.427666,123.014603 91.671722,121.896187 91.746262,120.150177 
	C90.673515,119.198219 89.770279,118.873848 88.867043,118.549477 
	C78.449173,115.991867 68.031303,113.434258 57.058685,110.712509 
	C53.952171,109.959320 51.400402,109.370277 48.848637,108.781235 
	C48.129265,108.612976 47.409893,108.444717 46.068203,108.046906 
	C44.971741,106.882309 44.497589,105.947258 44.023441,105.012207 
	C47.450607,103.330139 50.877773,101.648071 54.576149,99.722549 
	C59.712410,97.787155 64.577461,96.095230 69.715622,94.174240 
	C74.833649,92.934929 79.678558,91.924675 85.306824,90.806854 
	C90.725075,90.156563 95.359985,89.613846 100.254646,89.229759 
	C101.670616,89.214272 102.826828,89.040154 104.387207,88.854988 
	C107.529892,88.640091 110.268417,88.436249 113.282906,88.377068 
	C115.109711,88.172394 116.660545,87.823067 118.211388,87.473732 
	C118.168633,86.965065 118.125885,86.456406 118.083130,85.947739 
	C116.063805,85.610817 114.044472,85.273895 111.742340,84.833961 
	C110.298141,84.781479 109.136742,84.832016 107.583923,84.797119 
	C103.475975,84.730370 99.759453,84.749054 95.751907,84.615181 
	C93.987785,84.700394 92.514679,84.938164 90.683212,85.149933 
	C88.909241,85.317482 87.493629,85.511032 85.835487,85.513977 
	C85.200333,85.219063 84.807709,85.114761 84.415092,85.010460 
	C89.641388,77.603172 94.867683,70.195885 100.220932,62.468330 
	C110.522324,54.075089 120.696770,46.002113 131.035583,37.648300 
	C143.262756,32.973545 155.325546,28.579630 167.687714,23.966301 
	C168.422089,23.699293 168.857117,23.651697 169.895996,23.546494 
	C171.312500,23.229855 172.125168,22.970823 172.937820,22.711792 
	C173.382401,22.685638 173.826981,22.659487 174.915894,22.590771 
	C176.685944,22.269402 177.811676,21.990597 178.937393,21.711792 
	C179.999435,21.658609 181.061478,21.605429 182.960724,21.538784 
	C190.570694,21.456881 197.343460,21.388443 204.116226,21.320004 
	C204.847260,21.468367 205.578308,21.616730 206.976227,21.927757 
	C208.801514,22.170891 209.959885,22.251360 211.118271,22.331833 
	C211.540009,22.470345 211.961731,22.608854 213.054443,22.984127 
	C214.384354,26.836313 215.043274,30.451736 215.702209,34.067158 
	C215.577637,34.623569 215.453049,35.179977 215.191437,36.274529 
	C214.963699,38.225315 214.872986,39.637962 214.782257,41.050606 
	C214.630417,41.603664 214.478577,42.156727 214.148087,43.297050 
	C212.935425,48.297871 211.901428,52.711437 210.867416,57.125000 
	C210.163239,58.989353 209.459076,60.853706 208.392090,63.202560 
	C207.271896,62.808796 206.514496,61.930534 205.757095,61.052277 
	C205.723053,60.608837 205.688995,60.165394 205.586304,59.120720 
	C205.138779,57.823139 204.759903,57.126789 204.381042,56.430443 
	C203.834976,55.659073 203.288925,54.887707 202.324951,53.702888 
	C199.633118,52.983696 197.359192,52.677952 195.085266,52.372208 
	C194.637299,52.368324 194.189331,52.364445 193.077454,52.398560 
	C190.483078,53.212120 188.552582,53.987686 186.622101,54.763252 
	C183.265305,56.279549 179.908508,57.795845 176.551712,59.312138 
	C176.755829,59.827461 176.959961,60.342781 177.164093,60.858101 
	C178.805878,60.503307 180.447647,60.148514 182.789062,59.662209 
	C184.983582,58.940296 186.478470,58.349895 187.973358,57.759491 
	C188.378784,57.670296 188.784225,57.581100 189.761780,57.462490 
	C190.881699,57.219032 191.429520,57.004990 191.977325,56.790947 
	C195.604141,56.843838 200.029861,54.722992 201.610138,60.897629 
	C201.845078,62.478264 202.084320,63.494026 202.323547,64.509789 
	C202.334488,67.227470 202.345413,69.945145 202.140533,73.339653 
	C201.336899,76.039474 200.749084,78.062477 200.161285,80.085480 
	C196.713577,85.251480 193.265854,90.417473 189.389923,96.061966 
	C188.304733,97.367241 187.647781,98.194016 186.659225,99.072205 
	C179.889236,104.758774 173.450836,110.393913 167.012436,116.029053 
	C160.316544,120.743706 153.620651,125.458359 146.753326,130.466263 
	C138.439438,137.154861 130.459564,143.674423 128.128677,155.334808 
	C128.263245,159.318970 128.595947,162.628326 128.928635,165.937683 
	C129.471069,165.850998 130.013519,165.764313 130.555954,165.677612 
	C130.897598,162.069199 131.239243,158.460785 131.580902,154.852356 
	C133.414154,149.385956 135.594894,144.164291 141.058212,140.804169 
	C141.704132,147.272964 142.300110,153.241776 143.072021,159.580963 
	C145.769043,170.916351 153.449738,177.777863 165.633514,179.544815 
	C174.257431,180.750320 181.885651,179.040100 189.129059,174.448486 
	C196.398407,168.943237 203.527481,163.760498 210.762573,158.262573 
	C217.387894,149.718536 223.907181,141.489716 230.812454,132.724136 
	C232.623978,128.285934 229.438370,129.593948 227.876694,129.384430 
	C223.234833,128.761627 218.569305,128.315125 213.913040,127.799713 
	C215.943970,126.466331 217.974899,125.132950 220.185791,123.483467 
	C230.229782,117.597092 240.095367,112.029579 249.956268,106.453758 
	C251.543976,105.555992 253.110764,104.621193 255.116394,103.876434 
	C255.696686,105.362907 255.847824,106.676460 255.998962,107.990005 
	C255.730164,110.093758 255.461365,112.197510 255.099594,114.838242 
	C255.042343,115.902832 255.078064,116.430428 255.113770,116.958023 
	C254.811432,119.398560 254.509079,121.839096 254.105316,124.887085 
	C254.009079,126.324806 254.014267,127.155067 254.019470,127.985336 
	C253.719513,130.412567 253.419571,132.839783 253.031464,135.819504 
	C252.980652,136.906815 253.017975,137.441620 253.055328,137.976440 
	C252.758575,140.398773 252.461823,142.821091 252.225281,145.638519 
	C251.857071,147.600082 251.428650,149.166580 251.000229,150.733063 
	C250.646851,150.863800 250.293472,150.994553 249.940094,151.125305 
	C247.983505,146.804581 246.026901,142.483856 243.406052,136.696289 
	C239.260864,143.792358 235.727432,149.841202 231.999100,156.153702 
	C227.272629,162.386810 222.741058,168.356247 218.101501,174.645462 
	C213.128525,179.474411 208.263550,183.983582 203.204437,188.771988 
	C196.164276,193.136292 189.318237,197.221359 182.231003,201.534851 
	C175.653549,203.366241 169.317307,204.969223 162.300232,206.600708 
	C161.084427,206.784500 160.549469,206.939789 160.014511,207.095093 
	C155.325806,207.192749 150.637085,207.290390 145.504517,207.420868 
	C143.616516,207.277298 142.172348,207.100906 140.103027,206.885559 
	C138.418030,207.055893 137.358215,207.265213 136.298401,207.474518 
	C132.759705,209.520111 129.221008,211.565720 124.785316,214.129852 
	C121.109200,207.616287 117.329048,200.918396 113.548897,194.220505 
	C113.328827,194.614899 113.108757,195.009293 112.888687,195.403687 
	C111.128242,194.966217 108.909966,195.063675 107.677704,194.009048 
	C94.411530,182.655258 84.522186,168.807281 77.651482,152.042267 
	C77.064125,150.719971 76.689423,150.014252 76.314728,149.308533 
	C76.208931,148.724640 76.103127,148.140747 75.853027,147.294708 
M146.167877,58.971668 
	C142.837448,62.020931 139.507004,65.070190 136.176575,68.119453 
	C136.673294,68.695290 137.170013,69.271126 137.666733,69.846954 
	C141.239655,66.667679 144.812576,63.488392 148.978455,60.003384 
	C157.326172,54.032822 165.673889,48.062263 174.749756,42.064617 
	C180.225037,39.275631 185.700317,36.486645 191.175598,33.697662 
	C190.812302,32.998863 190.449005,32.300068 190.085693,31.601273 
	C184.630554,34.374615 179.175415,37.147953 172.987503,40.173473 
	C170.109085,41.040356 167.230667,41.907242 164.831802,42.258377 
	C166.192291,40.293877 167.552765,38.329380 169.059402,36.153858 
	C166.745529,34.917015 164.955139,33.959991 163.380524,33.118301 
	C161.403122,34.641479 159.511917,36.098274 156.859344,38.141533 
	C159.637909,39.833260 162.041000,41.296375 164.473297,43.558556 
	C163.214981,44.942383 162.101334,46.502209 160.671616,47.677540 
	C156.107025,51.429943 151.425079,55.039589 146.167877,58.971668 
z"/>
<path fill="#0265B5" opacity="1.000000" stroke="none" 
	d="
M136.753128,207.576080 
	C137.358215,207.265213 138.418030,207.055893 139.736603,206.944534 
	C139.995346,207.042480 139.990570,207.421280 139.985092,207.609009 
	C139.055695,207.757034 138.131775,207.717331 136.753128,207.576080 
z"/>
<path fill="#0167C3" opacity="1.000000" stroke="none" 
	d="
M76.300537,149.625183 
	C76.689423,150.014252 77.064125,150.719971 77.437477,151.730270 
	C77.052872,151.337189 76.669617,150.639511 76.300537,149.625183 
z"/>
<path fill="#01C3B0" opacity="1.000000" stroke="none" 
	d="
M203.859711,21.058254 
	C197.343460,21.388443 190.570694,21.456881 183.337280,21.400976 
	C189.785477,21.116590 196.694336,20.956547 203.859711,21.058254 
z"/>
<path fill="#00E3E0" opacity="1.000000" stroke="none" 
	d="
M186.990829,99.020782 
	C187.647781,98.194016 188.304733,97.367241 189.201691,96.325302 
	C189.584503,96.767799 189.727310,97.425453 189.942963,98.583954 
	C188.314545,102.642159 186.613281,106.199524 184.635956,109.939018 
	C183.899551,109.725334 183.439178,109.329529 182.793549,108.699982 
	C182.750320,107.117615 182.527435,105.576424 183.114975,104.462875 
	C184.145050,102.510666 185.672012,100.820641 186.990829,99.020782 
z"/>
<path fill="#01C3B0" opacity="1.000000" stroke="none" 
	d="
M215.956055,33.743557 
	C215.043274,30.451736 214.384354,26.836313 213.389709,22.964146 
	C214.332245,23.661840 216.536804,24.480333 216.700867,25.598282 
	C217.071976,28.127028 216.436188,30.803543 215.956055,33.743557 
z"/>
<path fill="#01C3B0" opacity="1.000000" stroke="none" 
	d="
M211.111954,56.916370 
	C211.901428,52.711437 212.935425,48.297871 214.181641,43.584663 
	C213.381393,47.759262 212.368942,52.233501 211.111954,56.916370 
z"/>
<path fill="#01C3B0" opacity="1.000000" stroke="none" 
	d="
M205.594421,61.335114 
	C206.514496,61.930534 207.271896,62.808796 208.342743,63.567253 
	C208.330582,64.697067 208.004959,65.946686 207.679337,67.196304 
	C207.215637,67.161484 206.751923,67.126656 206.288223,67.091835 
	C206.002747,65.267212 205.717255,63.442585 205.594421,61.335114 
z"/>
<path fill="#01C3B0" opacity="1.000000" stroke="none" 
	d="
M195.390549,52.558140 
	C197.359192,52.677952 199.633118,52.983696 202.060226,53.585426 
	C200.040878,53.502300 197.868362,53.123184 195.390549,52.558140 
z"/>
<path fill="#01C3B0" opacity="1.000000" stroke="none" 
	d="
M186.995544,54.807289 
	C188.552582,53.987686 190.483078,53.212120 192.764587,52.529533 
	C191.200089,53.365452 189.284531,54.108391 186.995544,54.807289 
z"/>
<path fill="#02A297" opacity="1.000000" stroke="none" 
	d="
M200.502167,79.960648 
	C200.749084,78.062477 201.336899,76.039474 202.131546,73.746964 
	C201.839935,75.596901 201.341492,77.716354 200.502167,79.960648 
z"/>
<path fill="#02A297" opacity="1.000000" stroke="none" 
	d="
M187.717834,57.629463 
	C186.478470,58.349895 184.983582,58.940296 183.138519,59.488689 
	C184.346329,58.797600 185.904312,58.148514 187.717834,57.629463 
z"/>
<path fill="#01C3B0" opacity="1.000000" stroke="none" 
	d="
M178.700043,21.535215 
	C177.811676,21.990597 176.685944,22.269402 175.220154,22.447231 
	C176.074280,22.017048 177.268478,21.687843 178.700043,21.535215 
z"/>
<path fill="#01C3B0" opacity="1.000000" stroke="none" 
	d="
M210.958099,22.093325 
	C209.959885,22.251360 208.801514,22.170891 207.349777,21.892532 
	C208.303604,21.748035 209.550766,21.801428 210.958099,22.093325 
z"/>
<path fill="#01C3B0" opacity="1.000000" stroke="none" 
	d="
M215.035095,40.720016 
	C214.872986,39.637962 214.963699,38.225315 215.238037,36.558670 
	C215.377060,37.666256 215.332489,39.027840 215.035095,40.720016 
z"/>
<path fill="#02A297" opacity="1.000000" stroke="none" 
	d="
M202.461670,64.156990 
	C202.084320,63.494026 201.845078,62.478264 201.731110,61.225647 
	C202.104187,61.927261 202.351990,62.865726 202.461670,64.156990 
z"/>
<path fill="#01C3B0" opacity="1.000000" stroke="none" 
	d="
M172.731750,22.552357 
	C172.125168,22.970823 171.312500,23.229855 170.187302,23.389847 
	C170.758392,22.991510 171.642044,22.692215 172.731750,22.552357 
z"/>
<path fill="#02A297" opacity="1.000000" stroke="none" 
	d="
M191.810852,56.641193 
	C191.429520,57.004990 190.881699,57.219032 190.046280,57.333977 
	C190.387238,56.987064 191.015793,56.739250 191.810852,56.641193 
z"/>
<path fill="#01C3B0" opacity="1.000000" stroke="none" 
	d="
M204.325104,56.733871 
	C204.759903,57.126789 205.138779,57.823139 205.438629,58.818867 
	C204.996124,58.424595 204.632660,57.730946 204.325104,56.733871 
z"/>
<path fill="#03569C" opacity="1.000000" stroke="none" 
	d="
M90.153412,131.963272 
	C90.472153,139.138931 90.472153,146.502304 90.472153,153.865662 
	C90.048981,153.975800 89.625809,154.085922 89.202644,154.196045 
	C88.469818,150.069489 87.736992,145.942917 87.291939,141.386353 
	C87.749107,140.946762 87.918510,140.937180 88.087906,140.927612 
	C88.670158,138.002060 89.252419,135.076523 90.153412,131.963272 
z"/>
<path fill="#0265B5" opacity="1.000000" stroke="none" 
	d="
M49.079666,109.016800 
	C51.400402,109.370277 53.952171,109.959320 56.783401,110.754013 
	C54.478809,110.390572 51.894756,109.821465 49.079666,109.016800 
z"/>
<path fill="#0265B5" opacity="1.000000" stroke="none" 
	d="
M43.700394,105.042343 
	C44.497589,105.947258 44.971741,106.882309 45.697052,108.049530 
	C44.533588,108.018822 43.118958,107.755936 41.704330,107.493050 
	C42.262001,106.686195 42.819672,105.879341 43.700394,105.042343 
z"/>
<path fill="#0167C3" opacity="1.000000" stroke="none" 
	d="
M71.611290,128.327332 
	C72.050537,129.497147 72.325165,130.938599 72.502762,132.745239 
	C72.086037,131.606613 71.766350,130.102798 71.611290,128.327332 
z"/>
<path fill="#016AB4" opacity="1.000000" stroke="none" 
	d="
M88.051071,140.583008 
	C87.918510,140.937180 87.749107,140.946762 87.325470,140.967194 
	C86.974167,139.828354 86.877106,138.678680 86.892403,137.265381 
	C87.341255,138.080658 87.677750,139.159515 88.051071,140.583008 
z"/>
<path fill="#0167C3" opacity="1.000000" stroke="none" 
	d="
M72.689224,136.246826 
	C73.104691,136.841446 73.368378,137.653458 73.566483,138.786041 
	C73.179756,138.225815 72.858604,137.345016 72.689224,136.246826 
z"/>
<path fill="#016AB4" opacity="1.000000" stroke="none" 
	d="
M89.017334,118.788101 
	C89.770279,118.873848 90.673515,119.198219 91.646835,119.817268 
	C90.867149,119.750206 90.017380,119.388458 89.017334,118.788101 
z"/>
<path fill="#03569C" opacity="1.000000" stroke="none" 
	d="
M90.842606,127.154495 
	C91.058945,127.562584 91.103760,128.123138 90.976982,128.833435 
	C90.760612,128.424438 90.715851,127.865700 90.842606,127.154495 
z"/>
<path fill="#03569C" opacity="1.000000" stroke="none" 
	d="
M90.992096,124.158051 
	C91.183617,124.133011 91.277306,124.534233 91.202217,124.725960 
	C90.936409,124.771317 90.745689,124.624939 90.554962,124.478561 
	C90.636833,124.380074 90.718704,124.281586 90.992096,124.158051 
z"/>
<path fill="#051530" opacity="1.000000" stroke="none" 
	d="
M72.533875,40.541157 
	C78.709610,40.859352 84.446037,41.237003 90.606026,41.548981 
	C91.782028,41.599709 92.534477,41.716110 93.925507,42.002701 
	C95.407188,42.265064 96.250290,42.357243 97.093399,42.449417 
	C101.666931,43.897030 106.240456,45.344646 110.653191,46.741364 
	C106.623138,51.118195 102.912819,55.147778 99.056244,59.469536 
	C95.010262,63.451893 91.110550,67.142067 86.827133,71.195328 
	C78.719940,62.070507 70.294640,52.587658 60.856804,41.965176 
	C65.468651,41.405174 68.781609,41.002892 72.533875,40.541157 
z"/>
<path fill="#027FAB" opacity="1.000000" stroke="none" 
	d="
M84.221420,84.975098 
	C84.807709,85.114761 85.200333,85.219063 85.702835,85.743546 
	C85.549500,86.397560 85.286270,86.631393 85.023033,86.865227 
	C84.479027,86.441460 83.935020,86.017693 83.324478,85.333557 
	C83.511917,85.013542 83.768524,84.969055 84.221420,84.975098 
z"/>
<path fill="#01C2B9" opacity="1.000000" stroke="none" 
	d="
M256.194305,107.739136 
	C255.847824,106.676460 255.696686,105.362907 255.435272,103.661240 
	C255.679855,104.678162 256.034760,106.083206 256.194305,107.739136 
z"/>
<path fill="#01C2B9" opacity="1.000000" stroke="none" 
	d="
M254.202789,127.788200 
	C254.014267,127.155067 254.009079,126.324806 254.164703,125.293411 
	C254.345718,125.925209 254.365921,126.758133 254.202789,127.788200 
z"/>
<path fill="#01C2B9" opacity="1.000000" stroke="none" 
	d="
M255.268143,116.808258 
	C255.078064,116.430428 255.042343,115.902832 255.159576,115.230606 
	C255.349197,115.610138 255.385849,116.134315 255.268143,116.808258 
z"/>
<path fill="#01C2B9" opacity="1.000000" stroke="none" 
	d="
M253.212677,137.822784 
	C253.017975,137.441620 252.980652,136.906815 253.090881,136.219818 
	C253.282303,136.601456 253.326172,137.135284 253.212677,137.822784 
z"/>
<path fill="#051832" opacity="1.000000" stroke="none" 
	d="
M182.978806,108.933716 
	C183.439178,109.329529 183.899551,109.725334 184.571014,110.344994 
	C186.165741,119.742889 187.549347,128.916931 188.967743,138.543762 
	C188.207092,138.871964 187.308670,138.945206 186.631958,138.592758 
	C178.362976,134.286148 170.126526,129.917084 161.566162,125.397621 
	C163.315674,124.062706 165.108475,122.694771 167.403015,120.934563 
	C172.929428,116.672768 177.954117,112.803238 182.978806,108.933716 
z"/>
<path fill="#01C3CD" opacity="1.000000" stroke="none" 
	d="
M182.793549,108.699974 
	C177.954117,112.803238 172.929428,116.672768 167.558624,120.663254 
	C167.141342,119.515533 167.070190,118.246849 167.005737,116.503616 
	C173.450836,110.393913 179.889236,104.758774 186.659225,99.072205 
	C185.672012,100.820641 184.145050,102.510666 183.114975,104.462875 
	C182.527435,105.576424 182.750320,107.117615 182.793549,108.699974 
z"/>
<path fill="#01B1AF" opacity="1.000000" stroke="none" 
	d="
M213.614120,127.855591 
	C218.569305,128.315125 223.234833,128.761627 227.876694,129.384430 
	C229.438370,129.593948 232.623978,128.285934 230.931702,132.401703 
	C227.185989,132.039474 223.719284,131.365845 220.223251,130.924515 
	C218.268448,130.677765 216.231445,131.001236 214.307068,130.651642 
	C213.826385,130.564316 213.637955,128.868179 213.614120,127.855591 
z"/>
<path fill="#019EB6" opacity="1.000000" stroke="none" 
	d="
M96.957809,42.227962 
	C96.250290,42.357243 95.407188,42.265064 94.306084,41.975319 
	C94.972801,41.854008 95.897507,41.930256 96.957809,42.227962 
z"/>
<path fill="#00EED1" opacity="1.000000" stroke="none" 
	d="
M161.053482,24.056892 
	C160.557129,24.295614 160.060776,24.534338 159.564423,24.773060 
	C159.502014,24.620785 159.439606,24.468512 159.377197,24.316238 
	C159.753967,24.189018 160.130753,24.061798 160.757462,23.968021 
	C161.007385,24.001465 161.053482,24.056892 161.053482,24.056892 
z"/>
<path fill="#00EED1" opacity="1.000000" stroke="none" 
	d="
M160.985718,23.972660 
	C161.447342,23.689182 161.930649,23.434507 162.413940,23.179831 
	C162.484512,23.333174 162.555084,23.486517 162.625656,23.639860 
	C162.251694,23.773590 161.877747,23.907320 161.278625,24.048973 
	C161.053482,24.056892 161.007385,24.001465 160.985718,23.972660 
z"/>
<path fill="#0273B5" opacity="1.000000" stroke="none" 
	d="
M131.344849,154.977463 
	C131.239243,158.460785 130.897598,162.069199 130.555954,165.677612 
	C130.013519,165.764313 129.471069,165.850998 128.928635,165.937683 
	C128.595947,162.628326 128.263245,159.318970 128.105133,155.719925 
	C129.222733,155.321014 130.165756,155.211792 131.344849,154.977463 
z"/>
<path fill="#00A6E2" opacity="1.000000" stroke="none" 
	d="
M145.071167,160.955597 
	C145.273163,161.160187 145.410583,161.416916 145.547989,161.673630 
	C145.357986,161.585815 145.167969,161.498016 144.929382,161.263123 
	C144.880783,161.116058 145.006561,161.007706 145.071167,160.955597 
z"/>
<path fill="#0265B5" opacity="1.000000" stroke="none" 
	d="
M160.175354,207.230118 
	C160.549469,206.939789 161.084427,206.784500 161.888535,206.726883 
	C161.550522,207.004745 160.943359,207.184952 160.175354,207.230118 
z"/>
<path fill="#01A8D5" opacity="1.000000" stroke="none" 
	d="
M85.035034,87.332703 
	C85.286270,86.631393 85.549500,86.397560 85.945374,85.934143 
	C87.493629,85.511032 88.909241,85.317482 90.971619,85.325157 
	C93.093239,85.273491 94.568085,85.020607 96.042931,84.767731 
	C99.759453,84.749054 103.475975,84.730370 107.869583,85.017822 
	C109.736656,85.460320 110.926636,85.596680 112.340790,85.992798 
	C112.712288,86.912506 112.859612,87.572449 113.006935,88.232407 
	C110.268417,88.436249 107.529892,88.640091 104.127258,88.690269 
	C102.307060,88.714775 101.150978,88.892952 99.994896,89.071129 
	C95.359985,89.613846 90.725075,90.156563 85.649780,90.645813 
	C85.155281,89.661613 85.101158,88.730896 85.035034,87.332703 
z"/>
<path fill="#029490" opacity="1.000000" stroke="none" 
	d="
M164.352249,42.774124 
	C167.230667,41.907242 170.109085,41.040356 173.431396,40.590271 
	C173.924042,41.368614 173.972809,41.730156 174.021591,42.091698 
	C165.673889,48.062263 157.326172,54.032822 148.387314,59.917770 
	C147.460266,59.456223 147.124359,59.080296 146.788452,58.704369 
	C151.425079,55.039589 156.107025,51.429943 160.671616,47.677540 
	C162.101334,46.502209 163.214981,44.942383 164.439148,43.185665 
	C164.404984,42.812775 164.352249,42.774124 164.352249,42.774124 
z"/>
<path fill="#01CFB8" opacity="1.000000" stroke="none" 
	d="
M164.592026,42.516251 
	C164.352249,42.774124 164.404984,42.812775 164.424530,42.786133 
	C162.041000,41.296375 159.637909,39.833260 156.859344,38.141533 
	C159.511917,36.098274 161.403122,34.641479 163.380524,33.118301 
	C164.955139,33.959991 166.745529,34.917015 169.059402,36.153858 
	C167.552765,38.329380 166.192291,40.293877 164.592026,42.516251 
z"/>
<path fill="#028883" opacity="1.000000" stroke="none" 
	d="
M174.385681,42.078156 
	C173.972809,41.730156 173.924042,41.368614 173.797775,40.464184 
	C179.175415,37.147953 184.630554,34.374615 190.085693,31.601273 
	C190.449005,32.300068 190.812302,32.998863 191.175598,33.697662 
	C185.700317,36.486645 180.225037,39.275631 174.385681,42.078156 
z"/>
<path fill="#027884" opacity="1.000000" stroke="none" 
	d="
M146.478165,58.838020 
	C147.124359,59.080296 147.460266,59.456223 148.090836,60.070633 
	C144.812576,63.488392 141.239655,66.667679 137.666733,69.846954 
	C137.170013,69.271126 136.673294,68.695290 136.176575,68.119453 
	C139.507004,65.070190 142.837448,62.020931 146.478165,58.838020 
z"/>
<path fill="#026B91" opacity="1.000000" stroke="none" 
	d="
M113.282906,88.377060 
	C112.859612,87.572449 112.712288,86.912506 112.311699,85.795036 
	C112.058434,85.337517 112.025146,84.936974 112.025146,84.936974 
	C114.044472,85.273895 116.063805,85.610817 118.083130,85.947739 
	C118.125885,86.456406 118.168633,86.965065 118.211388,87.473732 
	C116.660545,87.823067 115.109711,88.172394 113.282906,88.377060 
z"/>
<path fill="#027FAB" opacity="1.000000" stroke="none" 
	d="
M95.751907,84.615181 
	C94.568085,85.020607 93.093239,85.273491 91.329987,85.351151 
	C92.514679,84.938164 93.987785,84.700394 95.751907,84.615181 
z"/>
<path fill="#027FAB" opacity="1.000000" stroke="none" 
	d="
M111.742340,84.833961 
	C112.025146,84.936974 112.058434,85.337517 112.087524,85.535278 
	C110.926636,85.596680 109.736656,85.460320 108.261002,85.103256 
	C109.136742,84.832016 110.298141,84.781479 111.742340,84.833961 
z"/>
<path fill="#026B91" opacity="1.000000" stroke="none" 
	d="
M100.254646,89.229759 
	C101.150978,88.892952 102.307060,88.714775 103.723099,88.701317 
	C102.826828,89.040154 101.670616,89.214272 100.254646,89.229759 
z"/>
</svg>